<svg width="225" height="45" viewBox="0 0 225 45" fill="none" xmlns="http://www.w3.org/2000/svg">
<path d="M7.66797 27.742L12.5265 11.8262C12.5265 11.8262 14.2886 7.8104 18.1223 7.50076C18.2789 7.48847 18.4347 7.47532 18.5897 7.45251C20.4245 7.18584 33.1735 5.54549 36.0966 10.9122L26.2057 11.0543C25.1363 11.0701 24.076 11.3446 23.123 11.9078C22.1088 12.5078 21.0099 13.5262 20.3383 15.2525C20.3383 15.2525 19.0949 17.9718 18.0702 23.5394C17.8448 24.7657 17.2783 25.8841 16.435 26.6683C15.7778 27.2797 14.8816 27.7701 13.707 27.7402H7.66797V27.742Z" fill="url(#paint0_linear_56_13528)"/>
<path d="M6.70034 31.0352L5.41992 35.5659L21.3287 35.5238C21.5322 35.5238 21.7409 35.5001 21.9421 35.4633C23.0372 35.2633 26.6599 34.4904 30.0739 31.9106C30.0739 31.9106 40.1191 24.0861 37.6573 14.2633H30.024C30.024 14.2633 28.8449 14.0404 27.6235 15.3361C27.0214 15.9747 26.5994 16.8089 26.3718 17.7176C25.8068 19.9747 24.2186 26.1483 23.4774 27.3229C23.398 27.4492 23.3277 27.5808 23.2626 27.7176C22.8981 28.4834 21.6169 30.6852 18.895 30.8264L6.70034 31.0352Z" fill="url(#paint1_linear_56_13528)"/>
<path d="M35.9836 14.2631C35.9836 14.2631 35.4769 34.4622 5.5379 35.1473L5.41992 35.5657L21.3847 35.5236C21.483 35.5236 21.5806 35.5166 21.6789 35.5025C22.8383 35.3429 29.366 34.2525 33.8433 28.1674C34.0452 27.8929 34.226 27.5964 34.4332 27.328C35.5661 25.8596 39.5413 20.3131 37.6566 14.2631H35.9836Z" fill="#276439"/>
<path d="M55.392 30.418C53.94 30.418 52.7153 30.1907 51.718 29.736C50.7207 29.2667 49.9653 28.636 49.452 27.844C48.9387 27.0373 48.682 26.1133 48.682 25.072H52.18C52.18 25.4827 52.29 25.864 52.51 26.216C52.7447 26.568 53.0967 26.854 53.566 27.074C54.0353 27.2793 54.644 27.382 55.392 27.382C56.0667 27.382 56.6313 27.294 57.086 27.118C57.5407 26.942 57.8853 26.7 58.12 26.392C58.3547 26.0693 58.472 25.7027 58.472 25.292C58.472 24.7787 58.252 24.3753 57.812 24.082C57.372 23.774 56.6607 23.576 55.678 23.488L54.468 23.378C52.8693 23.246 51.5933 22.7473 50.64 21.882C49.6867 21.0167 49.21 19.8727 49.21 18.45C49.21 17.4233 49.452 16.536 49.936 15.788C50.4347 15.04 51.124 14.468 52.004 14.072C52.884 13.6613 53.9253 13.456 55.128 13.456C56.3893 13.456 57.4673 13.676 58.362 14.116C59.2713 14.5413 59.968 15.15 60.452 15.942C60.936 16.7193 61.178 17.636 61.178 18.692H57.658C57.658 18.296 57.5627 17.9367 57.372 17.614C57.1813 17.2767 56.8953 17.0053 56.514 16.8C56.1473 16.5947 55.6853 16.492 55.128 16.492C54.6 16.492 54.1527 16.58 53.786 16.756C53.434 16.932 53.17 17.174 52.994 17.482C52.818 17.7753 52.73 18.098 52.73 18.45C52.73 18.9047 52.8913 19.3007 53.214 19.638C53.5367 19.9753 54.0647 20.1733 54.798 20.232L56.03 20.342C57.2033 20.4447 58.2373 20.7013 59.132 21.112C60.0267 21.508 60.7233 22.058 61.222 22.762C61.7353 23.4513 61.992 24.2947 61.992 25.292C61.992 26.3187 61.7207 27.2207 61.178 27.998C60.65 28.7607 59.8947 29.3547 58.912 29.78C57.9293 30.2053 56.756 30.418 55.392 30.418ZM70.1538 30.418C69.0978 30.418 68.1592 30.2567 67.3378 29.934C66.5165 29.5967 65.8198 29.142 65.2478 28.57C64.6905 27.998 64.2652 27.3453 63.9718 26.612C63.6785 25.864 63.5318 25.0793 63.5318 24.258V23.752C63.5318 22.916 63.6785 22.124 63.9718 21.376C64.2798 20.6133 64.7198 19.946 65.2918 19.374C65.8785 18.802 66.5825 18.3547 67.4038 18.032C68.2252 17.6947 69.1418 17.526 70.1538 17.526C71.1952 17.526 72.1192 17.6947 72.9258 18.032C73.7472 18.3547 74.4438 18.802 75.0158 19.374C75.5878 19.946 76.0278 20.6133 76.3358 21.376C76.6438 22.124 76.7978 22.916 76.7978 23.752V24.258C76.7978 25.0793 76.6512 25.864 76.3578 26.612C76.0645 27.3453 75.6318 27.998 75.0598 28.57C74.5025 29.142 73.8132 29.5967 72.9918 29.934C72.1705 30.2567 71.2245 30.418 70.1538 30.418ZM70.1538 27.448C70.8432 27.448 71.4152 27.3013 71.8698 27.008C72.3245 26.7147 72.6692 26.304 72.9038 25.776C73.1532 25.248 73.2778 24.6613 73.2778 24.016C73.2778 23.3267 73.1532 22.7253 72.9038 22.212C72.6545 21.684 72.2952 21.266 71.8258 20.958C71.3712 20.65 70.8138 20.496 70.1538 20.496C69.5085 20.496 68.9512 20.65 68.4818 20.958C68.0125 21.266 67.6532 21.684 67.4038 22.212C67.1692 22.7253 67.0518 23.3267 67.0518 24.016C67.0518 24.6613 67.1692 25.248 67.4038 25.776C67.6385 26.304 67.9905 26.7147 68.4598 27.008C68.9292 27.3013 69.4938 27.448 70.1538 27.448ZM79.5184 30V17.834C79.5184 16.4407 79.9144 15.4067 80.7064 14.732C81.4984 14.0573 82.6644 13.72 84.2044 13.72H85.7444V16.36H84.0504C83.6544 16.36 83.3464 16.47 83.1264 16.69C82.9064 16.91 82.7964 17.218 82.7964 17.614V30H79.5184ZM78.0884 20.76V18.186H85.9204V20.76H78.0884ZM93.3692 30.154C92.1518 30.154 91.1692 30.0073 90.4212 29.714C89.6732 29.406 89.1232 28.9 88.7712 28.196C88.4338 27.4773 88.2652 26.5093 88.2652 25.292V14.688H91.5432V25.424C91.5432 25.996 91.6898 26.436 91.9832 26.744C92.2912 27.0373 92.7238 27.184 93.2812 27.184H95.0632V30.154H93.3692ZM86.4392 20.518V17.944H95.0632V20.518H86.4392ZM101.852 30L104.052 18.34H107.902L110.454 30H107.726L105.108 18.428H106.67L104.316 30H101.852ZM101.016 30L100.994 27.074H103.414L103.436 30H101.016ZM99.4322 30L96.1982 17.944H99.6522L102.666 30H99.4322ZM108.628 30L108.65 27.074H111.07V30H108.628ZM109.618 30L112.302 17.944H115.536L112.632 30H109.618ZM124.8 30V26.436H124.206V22.564C124.206 21.948 124.059 21.486 123.766 21.178C123.473 20.87 123.003 20.716 122.358 20.716C122.035 20.716 121.61 20.7233 121.082 20.738C120.554 20.7527 120.011 20.7747 119.454 20.804C118.897 20.8333 118.391 20.8627 117.936 20.892V17.922C118.273 17.8927 118.669 17.8633 119.124 17.834C119.579 17.8047 120.048 17.7827 120.532 17.768C121.016 17.7533 121.471 17.746 121.896 17.746C123.128 17.746 124.162 17.922 124.998 18.274C125.849 18.626 126.494 19.1613 126.934 19.88C127.374 20.584 127.594 21.4933 127.594 22.608V30H124.8ZM120.95 30.308C120.085 30.308 119.322 30.154 118.662 29.846C118.017 29.538 117.511 29.098 117.144 28.526C116.777 27.9393 116.594 27.2427 116.594 26.436C116.594 25.556 116.821 24.8373 117.276 24.28C117.731 23.708 118.369 23.29 119.19 23.026C120.011 22.7473 120.957 22.608 122.028 22.608H124.602V24.566H122.006C121.39 24.566 120.913 24.72 120.576 25.028C120.253 25.3213 120.092 25.7247 120.092 26.238C120.092 26.722 120.253 27.118 120.576 27.426C120.913 27.7193 121.39 27.866 122.006 27.866C122.402 27.866 122.754 27.8 123.062 27.668C123.385 27.5213 123.649 27.2793 123.854 26.942C124.059 26.6047 124.177 26.1353 124.206 25.534L125.042 26.414C124.969 27.25 124.763 27.954 124.426 28.526C124.103 29.098 123.649 29.538 123.062 29.846C122.49 30.154 121.786 30.308 120.95 30.308ZM130.581 30V17.944H133.375V23.114H133.309C133.309 21.4127 133.668 20.1 134.387 19.176C135.12 18.252 136.176 17.79 137.555 17.79H138.017V20.826H137.137C136.169 20.826 135.421 21.09 134.893 21.618C134.365 22.1313 134.101 22.8793 134.101 23.862V30H130.581ZM145.298 30.418C144.271 30.418 143.362 30.242 142.57 29.89C141.793 29.538 141.14 29.0687 140.612 28.482C140.099 27.8807 139.703 27.2133 139.424 26.48C139.16 25.732 139.028 24.9693 139.028 24.192V23.752C139.028 22.9453 139.16 22.1753 139.424 21.442C139.703 20.694 140.099 20.0267 140.612 19.44C141.125 18.8533 141.763 18.3913 142.526 18.054C143.303 17.702 144.183 17.526 145.166 17.526C146.457 17.526 147.542 17.8193 148.422 18.406C149.317 18.978 149.999 19.7333 150.468 20.672C150.937 21.596 151.172 22.608 151.172 23.708V24.896H140.502V22.894H149.038L147.894 23.818C147.894 23.0993 147.791 22.4833 147.586 21.97C147.381 21.4567 147.073 21.068 146.662 20.804C146.266 20.5253 145.767 20.386 145.166 20.386C144.55 20.386 144.029 20.5253 143.604 20.804C143.179 21.0827 142.856 21.4933 142.636 22.036C142.416 22.564 142.306 23.2167 142.306 23.994C142.306 24.7127 142.409 25.3433 142.614 25.886C142.819 26.414 143.142 26.8247 143.582 27.118C144.022 27.4113 144.594 27.558 145.298 27.558C145.943 27.558 146.471 27.4333 146.882 27.184C147.293 26.9347 147.571 26.6267 147.718 26.26H150.952C150.776 27.0667 150.431 27.7853 149.918 28.416C149.405 29.0467 148.759 29.538 147.982 29.89C147.205 30.242 146.31 30.418 145.298 30.418Z" fill="#276439"/>
<path d="M161.49 30.088V26.722H164.482C165.23 26.722 165.904 26.612 166.506 26.392C167.107 26.1573 167.62 25.8347 168.046 25.424C168.471 24.9987 168.794 24.4927 169.014 23.906C169.234 23.3047 169.344 22.6447 169.344 21.926C169.344 21.178 169.234 20.5107 169.014 19.924C168.794 19.3373 168.471 18.8387 168.046 18.428C167.62 18.0173 167.107 17.7093 166.506 17.504C165.904 17.284 165.23 17.174 164.482 17.174H161.49V13.808H164.284C165.736 13.808 167.004 14.0207 168.09 14.446C169.175 14.8713 170.084 15.4507 170.818 16.184C171.551 16.9173 172.094 17.7607 172.446 18.714C172.812 19.6527 172.996 20.6427 172.996 21.684V22.168C172.996 23.136 172.812 24.0967 172.446 25.05C172.094 25.9887 171.551 26.8393 170.818 27.602C170.084 28.35 169.175 28.9513 168.09 29.406C167.004 29.8607 165.736 30.088 164.284 30.088H161.49ZM158.322 30.088V13.808H161.93V30.088H158.322ZM181.185 30.418C180.129 30.418 179.19 30.2567 178.369 29.934C177.548 29.5967 176.851 29.142 176.279 28.57C175.722 27.998 175.296 27.3453 175.003 26.612C174.71 25.864 174.563 25.0793 174.563 24.258V23.752C174.563 22.916 174.71 22.124 175.003 21.376C175.311 20.6133 175.751 19.946 176.323 19.374C176.91 18.802 177.614 18.3547 178.435 18.032C179.256 17.6947 180.173 17.526 181.185 17.526C182.226 17.526 183.15 17.6947 183.957 18.032C184.778 18.3547 185.475 18.802 186.047 19.374C186.619 19.946 187.059 20.6133 187.367 21.376C187.675 22.124 187.829 22.916 187.829 23.752V24.258C187.829 25.0793 187.682 25.864 187.389 26.612C187.096 27.3453 186.663 27.998 186.091 28.57C185.534 29.142 184.844 29.5967 184.023 29.934C183.202 30.2567 182.256 30.418 181.185 30.418ZM181.185 27.448C181.874 27.448 182.446 27.3013 182.901 27.008C183.356 26.7147 183.7 26.304 183.935 25.776C184.184 25.248 184.309 24.6613 184.309 24.016C184.309 23.3267 184.184 22.7253 183.935 22.212C183.686 21.684 183.326 21.266 182.857 20.958C182.402 20.65 181.845 20.496 181.185 20.496C180.54 20.496 179.982 20.65 179.513 20.958C179.044 21.266 178.684 21.684 178.435 22.212C178.2 22.7253 178.083 23.3267 178.083 24.016C178.083 24.6613 178.2 25.248 178.435 25.776C178.67 26.304 179.022 26.7147 179.491 27.008C179.96 27.3013 180.525 27.448 181.185 27.448ZM190.286 30V17.944H193.08V23.136H192.882C192.882 21.904 193.036 20.8773 193.344 20.056C193.652 19.2347 194.114 18.6187 194.73 18.208C195.346 17.7827 196.101 17.57 196.996 17.57H197.15C198.059 17.57 198.814 17.7827 199.416 18.208C200.032 18.6187 200.494 19.2347 200.802 20.056C201.124 20.8773 201.286 21.904 201.286 23.136H200.428C200.428 21.904 200.582 20.8773 200.89 20.056C201.212 19.2347 201.682 18.6187 202.298 18.208C202.914 17.7827 203.669 17.57 204.564 17.57H204.718C205.627 17.57 206.39 17.7827 207.006 18.208C207.636 18.6187 208.113 19.2347 208.436 20.056C208.758 20.8773 208.92 21.904 208.92 23.136V30H205.4V22.938C205.4 22.278 205.224 21.7427 204.872 21.332C204.534 20.9213 204.05 20.716 203.42 20.716C202.789 20.716 202.29 20.9287 201.924 21.354C201.557 21.7647 201.374 22.3147 201.374 23.004V30H197.832V22.938C197.832 22.278 197.656 21.7427 197.304 21.332C196.966 20.9213 196.49 20.716 195.874 20.716C195.228 20.716 194.722 20.9287 194.356 21.354C193.989 21.7647 193.806 22.3147 193.806 23.004V30H190.286ZM217.442 30.418C216.416 30.418 215.506 30.242 214.714 29.89C213.937 29.538 213.284 29.0687 212.756 28.482C212.243 27.8807 211.847 27.2133 211.568 26.48C211.304 25.732 211.172 24.9693 211.172 24.192V23.752C211.172 22.9453 211.304 22.1753 211.568 21.442C211.847 20.694 212.243 20.0267 212.756 19.44C213.27 18.8533 213.908 18.3913 214.67 18.054C215.448 17.702 216.328 17.526 217.31 17.526C218.601 17.526 219.686 17.8193 220.566 18.406C221.461 18.978 222.143 19.7333 222.612 20.672C223.082 21.596 223.316 22.608 223.316 23.708V24.896H212.646V22.894H221.182L220.038 23.818C220.038 23.0993 219.936 22.4833 219.73 21.97C219.525 21.4567 219.217 21.068 218.806 20.804C218.41 20.5253 217.912 20.386 217.31 20.386C216.694 20.386 216.174 20.5253 215.748 20.804C215.323 21.0827 215 21.4933 214.78 22.036C214.56 22.564 214.45 23.2167 214.45 23.994C214.45 24.7127 214.553 25.3433 214.758 25.886C214.964 26.414 215.286 26.8247 215.726 27.118C216.166 27.4113 216.738 27.558 217.442 27.558C218.088 27.558 218.616 27.4333 219.026 27.184C219.437 26.9347 219.716 26.6267 219.862 26.26H223.096C222.92 27.0667 222.576 27.7853 222.062 28.416C221.549 29.0467 220.904 29.538 220.126 29.89C219.349 30.242 218.454 30.418 217.442 30.418Z" fill="#9EED4A"/>
<defs>
<linearGradient id="paint0_linear_56_13528" x1="22.8696" y1="4.44363" x2="21.7576" y2="16.9073" gradientUnits="userSpaceOnUse">
<stop stop-color="white"/>
<stop offset="0.9805" stop-color="#B1FA63"/>
</linearGradient>
<linearGradient id="paint1_linear_56_13528" x1="18.6797" y1="18.5128" x2="22.6071" y2="25.0515" gradientUnits="userSpaceOnUse">
<stop stop-color="white"/>
<stop offset="0.9805" stop-color="#B1FA63"/>
</linearGradient>
</defs>
</svg>
