<svg width="1183" height="349" viewBox="0 0 1183 349" fill="none" xmlns="http://www.w3.org/2000/svg">
<path d="M59.4702 215.155L97.1505 91.719C97.1505 91.719 110.817 60.5743 140.55 58.1728C141.764 58.0775 142.972 57.9755 144.175 57.7986C158.404 55.7305 257.28 43.0086 279.95 84.6301L203.241 85.7322C194.947 85.8547 186.723 87.984 179.333 92.3516C171.467 97.005 162.944 104.903 157.736 118.292C157.736 118.292 148.093 139.382 140.145 182.561C138.397 192.072 134.004 200.746 127.464 206.828C122.366 211.569 115.416 215.372 106.307 215.141H59.4702V215.155Z" fill="url(#paint0_linear_49_5915)"/>
<path d="M51.9631 240.694L42.0327 275.832L165.414 275.506C166.992 275.506 168.611 275.322 170.171 275.036C178.665 273.485 206.761 267.492 233.238 247.484C233.238 247.484 311.144 186.8 292.052 110.619H232.851C232.851 110.619 223.706 108.891 214.233 118.939C209.564 123.891 206.291 130.361 204.526 137.409C200.144 154.914 187.827 202.794 182.079 211.903C181.463 212.883 180.917 213.904 180.413 214.965C177.585 220.904 167.649 237.98 146.539 239.075L51.9631 240.694Z" fill="url(#paint1_linear_49_5915)"/>
<path d="M279.071 110.618C279.071 110.618 275.141 267.274 42.9477 272.587L42.0327 275.832L165.849 275.506C166.611 275.506 167.368 275.451 168.13 275.342C177.122 274.104 227.748 265.648 262.472 218.455C264.038 216.325 265.44 214.026 267.047 211.944C275.833 200.556 306.663 157.54 292.046 110.618H279.071Z" fill="#276439"/>
<path d="M389.267 156.972C388.949 153.763 387.583 151.271 385.17 149.494C382.758 147.718 379.483 146.83 375.347 146.83C372.536 146.83 370.163 147.227 368.227 148.023C366.292 148.792 364.807 149.866 363.773 151.244C362.765 152.623 362.261 154.188 362.261 155.938C362.208 157.396 362.513 158.669 363.176 159.756C363.866 160.843 364.807 161.784 366 162.58C367.193 163.348 368.572 164.025 370.136 164.608C371.701 165.165 373.371 165.642 375.148 166.04L382.466 167.79C386.019 168.585 389.28 169.646 392.25 170.972C395.22 172.297 397.792 173.928 399.966 175.864C402.14 177.799 403.824 180.08 405.017 182.705C406.237 185.33 406.86 188.339 406.886 191.733C406.86 196.718 405.587 201.04 403.068 204.699C400.576 208.331 396.97 211.155 392.25 213.17C387.557 215.159 381.896 216.153 375.267 216.153C368.691 216.153 362.964 215.146 358.085 213.131C353.233 211.116 349.441 208.133 346.71 204.182C344.006 200.205 342.587 195.286 342.455 189.426H359.119C359.305 192.157 360.087 194.437 361.466 196.267C362.871 198.07 364.741 199.436 367.074 200.364C369.434 201.265 372.098 201.716 375.068 201.716C377.985 201.716 380.517 201.292 382.665 200.443C384.839 199.595 386.523 198.415 387.716 196.903C388.909 195.392 389.506 193.655 389.506 191.693C389.506 189.864 388.962 188.326 387.875 187.08C386.814 185.833 385.25 184.773 383.182 183.898C381.14 183.023 378.634 182.227 375.665 181.511L366.795 179.284C359.928 177.614 354.506 175.002 350.528 171.449C346.551 167.896 344.576 163.11 344.602 157.091C344.576 152.159 345.888 147.85 348.54 144.165C351.218 140.479 354.89 137.602 359.557 135.534C364.223 133.466 369.527 132.432 375.466 132.432C381.511 132.432 386.788 133.466 391.295 135.534C395.83 137.602 399.356 140.479 401.875 144.165C404.394 147.85 405.693 152.119 405.773 156.972H389.267ZM445.754 216.193C439.576 216.193 434.233 214.881 429.726 212.256C425.245 209.604 421.785 205.919 419.345 201.199C416.906 196.453 415.686 190.951 415.686 184.693C415.686 178.383 416.906 172.867 419.345 168.148C421.785 163.402 425.245 159.716 429.726 157.091C434.233 154.439 439.576 153.114 445.754 153.114C451.932 153.114 457.262 154.439 461.743 157.091C466.25 159.716 469.724 163.402 472.163 168.148C474.603 172.867 475.822 178.383 475.822 184.693C475.822 190.951 474.603 196.453 472.163 201.199C469.724 205.919 466.25 209.604 461.743 212.256C457.262 214.881 451.932 216.193 445.754 216.193ZM445.834 203.068C448.644 203.068 450.991 202.273 452.874 200.682C454.756 199.064 456.175 196.864 457.129 194.08C458.11 191.295 458.601 188.127 458.601 184.574C458.601 181.021 458.11 177.852 457.129 175.068C456.175 172.284 454.756 170.083 452.874 168.466C450.991 166.848 448.644 166.04 445.834 166.04C442.997 166.04 440.61 166.848 438.675 168.466C436.766 170.083 435.321 172.284 434.339 175.068C433.385 177.852 432.908 181.021 432.908 184.574C432.908 188.127 433.385 191.295 434.339 194.08C435.321 196.864 436.766 199.064 438.675 200.682C440.61 202.273 442.997 203.068 445.834 203.068ZM519.692 153.909V166.636H481.987V153.909H519.692ZM490.618 215V149.494C490.618 145.066 491.48 141.394 493.203 138.477C494.953 135.561 497.339 133.373 500.362 131.915C503.385 130.456 506.819 129.727 510.663 129.727C513.262 129.727 515.635 129.926 517.783 130.324C519.957 130.722 521.574 131.08 522.635 131.398L519.612 144.125C518.949 143.913 518.127 143.714 517.146 143.528C516.192 143.343 515.211 143.25 514.203 143.25C511.711 143.25 509.974 143.833 508.993 145C508.012 146.14 507.521 147.744 507.521 149.812V215H490.618ZM562.537 153.909V166.636H525.747V153.909H562.537ZM534.099 139.273H551.043V196.227C551.043 197.792 551.281 199.011 551.759 199.886C552.236 200.735 552.899 201.331 553.747 201.676C554.622 202.021 555.63 202.193 556.77 202.193C557.565 202.193 558.361 202.127 559.156 201.994C559.952 201.835 560.562 201.716 560.986 201.636L563.651 214.244C562.802 214.509 561.609 214.814 560.071 215.159C558.533 215.53 556.664 215.756 554.463 215.835C550.38 215.994 546.8 215.451 543.724 214.205C540.675 212.958 538.302 211.023 536.605 208.398C534.908 205.773 534.073 202.458 534.099 198.455V139.273ZM585.625 215L569 153.909H586.142L595.608 194.955H596.165L606.028 153.909H622.852L632.875 194.716H633.392L642.699 153.909H659.801L643.216 215H625.278L614.778 176.58H614.023L603.523 215H585.625ZM686.26 216.153C682.362 216.153 678.889 215.477 675.839 214.125C672.79 212.746 670.377 210.718 668.601 208.04C666.851 205.335 665.976 201.968 665.976 197.938C665.976 194.544 666.599 191.693 667.845 189.386C669.091 187.08 670.788 185.223 672.936 183.818C675.084 182.413 677.523 181.352 680.254 180.636C683.012 179.92 685.902 179.417 688.925 179.125C692.478 178.754 695.341 178.409 697.516 178.091C699.69 177.746 701.268 177.242 702.249 176.58C703.23 175.917 703.72 174.936 703.72 173.636V173.398C703.72 170.879 702.925 168.93 701.334 167.551C699.769 166.172 697.542 165.483 694.652 165.483C691.603 165.483 689.177 166.159 687.374 167.511C685.571 168.837 684.377 170.508 683.794 172.523L668.124 171.25C668.919 167.538 670.483 164.33 672.817 161.625C675.15 158.894 678.16 156.799 681.845 155.341C685.557 153.856 689.853 153.114 694.732 153.114C698.125 153.114 701.374 153.511 704.476 154.307C707.605 155.102 710.375 156.335 712.788 158.006C715.228 159.676 717.15 161.824 718.555 164.449C719.961 167.047 720.663 170.163 720.663 173.795V215H704.595V206.528H704.118C703.137 208.438 701.824 210.121 700.18 211.58C698.536 213.011 696.561 214.138 694.254 214.96C691.947 215.756 689.283 216.153 686.26 216.153ZM691.112 204.46C693.605 204.46 695.805 203.97 697.714 202.989C699.624 201.981 701.122 200.629 702.209 198.932C703.296 197.235 703.839 195.312 703.839 193.165V186.682C703.309 187.027 702.58 187.345 701.652 187.636C700.75 187.902 699.73 188.153 698.589 188.392C697.449 188.604 696.309 188.803 695.169 188.989C694.029 189.148 692.995 189.294 692.067 189.426C690.078 189.718 688.341 190.182 686.857 190.818C685.372 191.455 684.218 192.316 683.396 193.403C682.574 194.464 682.163 195.79 682.163 197.381C682.163 199.688 682.999 201.451 684.669 202.67C686.366 203.864 688.514 204.46 691.112 204.46ZM733.808 215V153.909H750.234V164.568H750.871C751.984 160.777 753.854 157.913 756.479 155.977C759.104 154.015 762.126 153.034 765.547 153.034C766.395 153.034 767.31 153.087 768.291 153.193C769.272 153.299 770.134 153.445 770.876 153.631V168.665C770.081 168.426 768.981 168.214 767.575 168.028C766.17 167.843 764.884 167.75 763.717 167.75C761.225 167.75 758.998 168.294 757.036 169.381C755.1 170.441 753.562 171.926 752.422 173.835C751.308 175.744 750.751 177.945 750.751 180.438V215H733.808ZM804.634 216.193C798.349 216.193 792.94 214.92 788.406 212.375C783.899 209.803 780.425 206.17 777.986 201.477C775.546 196.758 774.327 191.176 774.327 184.733C774.327 178.449 775.546 172.934 777.986 168.188C780.425 163.441 783.859 159.742 788.287 157.091C792.741 154.439 797.965 153.114 803.957 153.114C807.988 153.114 811.74 153.763 815.213 155.062C818.713 156.335 821.762 158.258 824.361 160.83C826.986 163.402 829.027 166.636 830.486 170.534C831.944 174.405 832.673 178.939 832.673 184.136V188.79H781.088V178.29H816.724C816.724 175.85 816.194 173.689 815.134 171.807C814.073 169.924 812.601 168.453 810.719 167.392C808.863 166.305 806.702 165.761 804.236 165.761C801.664 165.761 799.384 166.358 797.395 167.551C795.433 168.718 793.895 170.295 792.781 172.284C791.668 174.246 791.098 176.434 791.071 178.847V188.83C791.071 191.852 791.628 194.464 792.741 196.665C793.882 198.866 795.486 200.562 797.554 201.756C799.622 202.949 802.075 203.545 804.912 203.545C806.795 203.545 808.518 203.28 810.082 202.75C811.647 202.22 812.986 201.424 814.099 200.364C815.213 199.303 816.062 198.004 816.645 196.466L832.315 197.5C831.52 201.265 829.889 204.553 827.423 207.364C824.984 210.148 821.829 212.322 817.957 213.886C814.113 215.424 809.671 216.193 804.634 216.193Z" fill="white"/>
<path d="M898.845 215H869.97V133.545H899.084C907.277 133.545 914.33 135.176 920.243 138.438C926.156 141.672 930.703 146.326 933.885 152.398C937.093 158.47 938.697 165.735 938.697 174.193C938.697 182.678 937.093 189.97 933.885 196.068C930.703 202.167 926.129 206.847 920.163 210.108C914.224 213.369 907.118 215 898.845 215ZM887.192 200.244H898.129C903.22 200.244 907.502 199.343 910.976 197.54C914.476 195.71 917.101 192.886 918.851 189.068C920.627 185.223 921.516 180.265 921.516 174.193C921.516 168.174 920.627 163.256 918.851 159.438C917.101 155.619 914.489 152.809 911.016 151.006C907.542 149.203 903.26 148.301 898.169 148.301H887.192V200.244ZM978.739 216.193C972.561 216.193 967.218 214.881 962.71 212.256C958.229 209.604 954.769 205.919 952.33 201.199C949.89 196.453 948.67 190.951 948.67 184.693C948.67 178.383 949.89 172.867 952.33 168.148C954.769 163.402 958.229 159.716 962.71 157.091C967.218 154.439 972.561 153.114 978.739 153.114C984.917 153.114 990.246 154.439 994.727 157.091C999.235 159.716 1002.71 163.402 1005.15 168.148C1007.59 172.867 1008.81 178.383 1008.81 184.693C1008.81 190.951 1007.59 196.453 1005.15 201.199C1002.71 205.919 999.235 209.604 994.727 212.256C990.246 214.881 984.917 216.193 978.739 216.193ZM978.818 203.068C981.629 203.068 983.975 202.273 985.858 200.682C987.741 199.064 989.159 196.864 990.114 194.08C991.095 191.295 991.585 188.127 991.585 184.574C991.585 181.021 991.095 177.852 990.114 175.068C989.159 172.284 987.741 170.083 985.858 168.466C983.975 166.848 981.629 166.04 978.818 166.04C975.981 166.04 973.595 166.848 971.659 168.466C969.75 170.083 968.305 172.284 967.324 175.068C966.369 177.852 965.892 181.021 965.892 184.574C965.892 188.127 966.369 191.295 967.324 194.08C968.305 196.864 969.75 199.064 971.659 200.682C973.595 202.273 975.981 203.068 978.818 203.068ZM1019.82 215V153.909H1035.97V164.688H1036.69C1037.96 161.108 1040.08 158.284 1043.05 156.216C1046.02 154.148 1049.57 153.114 1053.71 153.114C1057.9 153.114 1061.47 154.161 1064.41 156.256C1067.35 158.324 1069.31 161.134 1070.3 164.688H1070.93C1072.18 161.188 1074.43 158.39 1077.69 156.295C1080.98 154.174 1084.87 153.114 1089.35 153.114C1095.05 153.114 1099.67 154.93 1103.23 158.562C1106.81 162.169 1108.6 167.286 1108.6 173.915V215H1091.69V177.256C1091.69 173.862 1090.79 171.316 1088.99 169.619C1087.19 167.922 1084.93 167.074 1082.23 167.074C1079.15 167.074 1076.75 168.055 1075.03 170.017C1073.3 171.953 1072.44 174.511 1072.44 177.693V215H1056.02V176.898C1056.02 173.902 1055.16 171.515 1053.43 169.739C1051.73 167.962 1049.49 167.074 1046.71 167.074C1044.83 167.074 1043.13 167.551 1041.62 168.506C1040.13 169.434 1038.95 170.746 1038.08 172.443C1037.2 174.114 1036.77 176.076 1036.77 178.33V215H1019.82ZM1149.82 216.193C1143.54 216.193 1138.13 214.92 1133.59 212.375C1129.09 209.803 1125.61 206.17 1123.17 201.477C1120.73 196.758 1119.51 191.176 1119.51 184.733C1119.51 178.449 1120.73 172.934 1123.17 168.188C1125.61 163.441 1129.05 159.742 1133.47 157.091C1137.93 154.439 1143.15 153.114 1149.14 153.114C1153.18 153.114 1156.93 153.763 1160.4 155.062C1163.9 156.335 1166.95 158.258 1169.55 160.83C1172.17 163.402 1174.21 166.636 1175.67 170.534C1177.13 174.405 1177.86 178.939 1177.86 184.136V188.79H1126.28V178.29H1161.91C1161.91 175.85 1161.38 173.689 1160.32 171.807C1159.26 169.924 1157.79 168.453 1155.91 167.392C1154.05 166.305 1151.89 165.761 1149.42 165.761C1146.85 165.761 1144.57 166.358 1142.58 167.551C1140.62 168.718 1139.08 170.295 1137.97 172.284C1136.86 174.246 1136.29 176.434 1136.26 178.847V188.83C1136.26 191.852 1136.82 194.464 1137.93 196.665C1139.07 198.866 1140.67 200.562 1142.74 201.756C1144.81 202.949 1147.26 203.545 1150.1 203.545C1151.98 203.545 1153.71 203.28 1155.27 202.75C1156.83 202.22 1158.17 201.424 1159.29 200.364C1160.4 199.303 1161.25 198.004 1161.83 196.466L1177.5 197.5C1176.71 201.265 1175.08 204.553 1172.61 207.364C1170.17 210.148 1167.02 212.322 1163.14 213.886C1159.3 215.424 1154.86 216.193 1149.82 216.193Z" fill="#B9FA74"/>
<defs>
<linearGradient id="paint0_linear_49_5915" x1="177.367" y1="34.4631" x2="168.743" y2="131.126" gradientUnits="userSpaceOnUse">
<stop stop-color="white"/>
<stop offset="0.9805" stop-color="#B1FA63"/>
</linearGradient>
<linearGradient id="paint1_linear_49_5915" x1="144.87" y1="143.576" x2="175.329" y2="194.288" gradientUnits="userSpaceOnUse">
<stop stop-color="white"/>
<stop offset="0.9805" stop-color="#B1FA63"/>
</linearGradient>
</defs>
</svg>
