<svg width="349" height="349" viewBox="0 0 349 349" fill="none" xmlns="http://www.w3.org/2000/svg">
<path d="M59.4705 215.155L97.1507 91.719C97.1507 91.719 110.817 60.5743 140.55 58.1728C141.764 58.0775 142.972 57.9755 144.175 57.7986C158.405 55.7305 257.28 43.0086 279.951 84.6301L203.241 85.7322C194.947 85.8547 186.723 87.984 179.333 92.3516C171.467 97.005 162.945 104.903 157.736 118.292C157.736 118.292 148.093 139.382 140.145 182.561C138.397 192.072 134.004 200.746 127.464 206.828C122.367 211.569 115.416 215.372 106.307 215.141H59.4705V215.155Z" fill="url(#paint0_linear_85_3)"/>
<path d="M51.9631 240.694L42.0328 275.832L165.415 275.506C166.992 275.506 168.611 275.322 170.171 275.036C178.665 273.485 206.761 267.492 233.238 247.484C233.238 247.484 311.144 186.8 292.052 110.619H232.851C232.851 110.619 223.706 108.891 214.233 118.939C209.564 123.891 206.292 130.361 204.526 137.409C200.144 154.914 187.827 202.794 182.079 211.903C181.463 212.883 180.917 213.904 180.413 214.965C177.586 220.904 167.649 237.98 146.539 239.075L51.9631 240.694Z" fill="url(#paint1_linear_85_3)"/>
<path d="M279.071 110.618C279.071 110.618 275.141 267.274 42.9478 272.587L42.0328 275.832L165.849 275.505C166.611 275.505 167.368 275.451 168.13 275.342C177.122 274.104 227.748 265.648 262.472 218.455C264.038 216.325 265.44 214.026 267.047 211.944C275.833 200.556 306.663 157.539 292.046 110.618H279.071Z" fill="#276439"/>
<defs>
<linearGradient id="paint0_linear_85_3" x1="177.368" y1="34.4631" x2="168.743" y2="131.126" gradientUnits="userSpaceOnUse">
<stop stop-color="white"/>
<stop offset="0.9805" stop-color="#B1FA63"/>
</linearGradient>
<linearGradient id="paint1_linear_85_3" x1="144.87" y1="143.576" x2="175.329" y2="194.288" gradientUnits="userSpaceOnUse">
<stop stop-color="white"/>
<stop offset="0.9805" stop-color="#B1FA63"/>
</linearGradient>
</defs>
</svg>
